<svg width="48" height="48" viewBox="0 0 48 48" fill="none" xmlns="http://www.w3.org/2000/svg">
<path d="M10.035 48H2.06392C1.66106 48 1.33411 47.673 1.33411 47.2702V21.5792C1.33411 21.1763 1.66106 20.8494 2.06392 20.8494H10.035C10.4378 20.8494 10.7648 21.1763 10.7648 21.5792V47.2702C10.7648 47.673 10.4378 48 10.035 48ZM2.79374 46.5403H9.30516V22.309H2.79374V46.5403Z" fill="#2580CC"/>
<path d="M27.9899 48H20.013C19.6102 48 19.2832 47.6731 19.2832 47.2702V9.99849C19.2832 9.59563 19.6102 9.26868 20.013 9.26868H27.9899C28.3928 9.26868 28.7197 9.59563 28.7197 9.99849V47.2702C28.7197 47.6731 28.3928 48 27.9899 48ZM20.7428 46.5404H27.2601V10.7283H20.7428V46.5404Z" fill="#2580CC"/>
<path d="M45.9361 48H37.9592C37.5563 48 37.2294 47.673 37.2294 47.2702V0.729816C37.2294 0.326958 37.5563 0 37.9592 0H45.9361C46.3389 0 46.6659 0.326958 46.6659 0.729816V47.2702C46.6659 47.673 46.3389 48 45.9361 48ZM38.689 46.5404H45.2063V1.45963H38.689V46.5404Z" fill="#2580CC"/>
</svg>
