<svg width="48" height="48" viewBox="0 0 48 48" fill="none" xmlns="http://www.w3.org/2000/svg">
<path d="M34.3918 47.9999C32.6114 47.9999 30.4611 47.5606 28.0979 46.682C22.9122 44.7576 17.2717 40.9541 12.2141 35.9745C7.15513 30.9948 3.29358 25.4398 1.33763 20.3354C-0.441305 15.6944 -0.445623 11.8838 1.32323 10.1422C1.57798 9.89 1.83849 9.62075 2.10619 9.34442C3.72392 7.67224 5.58201 5.77334 7.96975 5.87395C9.6393 5.94197 11.2556 6.96228 12.9122 8.98872C17.7999 14.9774 15.5979 17.1115 13.0475 19.5858L12.597 20.0251C12.1796 20.436 11.3894 22.3392 18.7283 29.5635C21.1232 31.9216 23.1655 33.6476 24.7976 34.692C25.8267 35.3509 27.6618 36.3443 28.4159 35.6018L28.8693 35.1511C31.3808 32.6429 33.5484 30.4804 39.6264 35.2914C41.686 36.9197 42.7193 38.5111 42.7899 40.1563C42.8892 42.5384 40.962 44.3396 39.2622 45.931C38.983 46.1931 38.7081 46.4482 38.4534 46.699C37.5697 47.5649 36.1649 47.9999 34.3918 47.9999ZM7.79992 7.28679C6.08 7.28679 4.52559 8.89661 3.1511 10.3208C2.87476 10.6042 2.60562 10.8834 2.34223 11.1427C1.02387 12.4394 1.15916 15.8517 2.68478 19.8352C4.57021 24.7553 8.31518 30.1318 13.2317 34.974C18.1482 39.8134 23.6074 43.5021 28.6059 45.357C32.6546 46.862 36.1174 46.9895 37.4358 45.6929C37.6992 45.4336 37.9813 45.17 38.2706 44.8979C39.7487 43.5148 41.424 41.9489 41.3506 40.2102C41.3017 39.0141 40.418 37.7302 38.7239 36.3911C33.6577 32.3821 32.2429 33.7964 29.8941 36.1417L29.4335 36.5994C28.3123 37.7061 26.4873 37.4596 24.0132 35.8767C22.2976 34.7784 20.1762 32.9886 17.7107 30.5612C11.6212 24.5654 9.6724 20.898 11.5794 19.0175L12.0371 18.5711C14.4234 16.2584 15.8641 14.8626 11.791 9.87299C10.4295 8.20791 9.12548 7.33781 7.91074 7.28821C7.87332 7.28679 7.8359 7.28679 7.79992 7.28679Z" fill="#2580CC"/>
<path d="M39.173 36.5483C38.9513 36.5483 38.7326 36.4477 38.5915 36.2578C38.3584 35.9404 38.4289 35.4982 38.7484 35.2672C40.2395 34.1959 41.565 32.9177 42.6877 31.4652C45.2208 28.1874 46.5593 24.2706 46.5593 20.1398C46.5607 9.81622 38.0317 1.41709 27.5466 1.41709C24.3702 1.41709 21.2254 2.205 18.4548 3.69153C18.1065 3.88142 17.6689 3.7553 17.479 3.40953C17.2875 3.06659 17.4171 2.6358 17.7654 2.44874C20.7475 0.847423 24.1298 0 27.5466 0C38.8247 0 48 9.03398 48 20.1398C48 24.5838 46.5593 28.7954 43.8319 32.3239C42.6258 33.8856 41.2009 35.2602 39.5976 36.4137C39.4709 36.5044 39.3212 36.5483 39.173 36.5483Z" fill="#2580CC"/>
<path d="M23.5426 12.4786C24.4004 12.2235 25.2237 12.0648 26.1117 12.0648C28.4088 12.0648 29.8135 13.1942 29.8135 15.1201C29.8135 16.1857 29.2147 16.9977 27.9381 17.8253L25.369 19.5272C24.576 20.053 24.2205 20.8806 24.2205 21.7719H29.4724C29.5861 21.7719 29.6508 21.8357 29.6508 21.9462V23.172C29.6508 23.2825 29.5861 23.3463 29.4724 23.3463H22.5711C22.4588 23.3463 22.3941 23.2825 22.3941 23.172V22.4082C22.3941 20.4668 23.0403 19.0667 24.494 18.1272L27.0487 16.4564C27.6949 16.0256 27.9842 15.6118 27.9842 15.1201C27.9842 14.2287 27.2732 13.6562 26.1088 13.6562C25.382 13.6562 24.6868 13.7838 24.0737 13.9892L23.1353 14.2925C23.0403 14.3237 22.9583 14.2755 22.9252 14.1805L22.5222 12.9873C22.4732 12.8924 22.5222 12.8116 22.6344 12.7805L23.5426 12.4786Z" fill="#2580CC"/>
<path d="M39.7904 20.3242C39.7904 20.4361 39.7257 20.4999 39.6134 20.4999H38.6117V23.1739C38.6117 23.2845 38.5469 23.3482 38.4332 23.3482H36.9795C36.8658 23.3482 36.8011 23.2845 36.8011 23.1739V20.4999H31.3851C31.2729 20.4999 31.2081 20.4361 31.2081 20.3242V18.9878C31.2081 18.8929 31.2254 18.8291 31.2901 18.7654C31.6931 18.3048 32.0486 17.874 32.4372 17.3497L35.428 13.5618C35.7346 13.1636 35.9764 12.781 36.2513 12.336C36.316 12.2566 36.3808 12.2255 36.4772 12.2255H38.4318C38.5455 12.2255 38.6102 12.2892 38.6102 12.3998V18.9241H39.612C39.7242 18.9241 39.789 18.9878 39.789 19.0998V20.3242H39.7904ZM36.8011 16.1707C36.8011 15.6619 36.8327 15.1518 36.8975 14.6104C36.9292 14.4191 36.7852 14.3709 36.6557 14.5467L34.0363 17.8244C33.8261 18.1107 33.5196 18.4763 33.2936 18.6832C33.1799 18.8107 33.2447 18.9212 33.3742 18.9212H36.8011V16.1707Z" fill="#2580CC"/>
</svg>
