<svg width="60" height="51" viewBox="0 0 60 51" fill="none" xmlns="http://www.w3.org/2000/svg">
<path d="M50.1305 42.1241H9.86947C7.73662 42.1241 6 40.389 6 38.2546V11.8695C6 9.73507 7.73662 8 9.86947 8H50.1305C52.2634 8 54 9.73507 54 11.8695V38.2546C54 40.389 52.2634 42.1241 50.1305 42.1241ZM9.86947 9.54779C8.58945 9.54779 7.54779 10.5894 7.54779 11.8695V38.2546C7.54779 39.5346 8.58945 40.5763 9.86947 40.5763H50.1305C51.4106 40.5763 52.4522 39.5346 52.4522 38.2546V11.8695C52.4522 10.5894 51.4106 9.54779 50.1305 9.54779H9.86947Z" fill="#2580CC"/>
<path d="M30 28.9507C28.9707 28.9507 27.9414 28.6087 27.1583 27.9261L7.37907 10.6884C7.05713 10.4067 7.02308 9.91912 7.30478 9.59718C7.58647 9.27215 8.07558 9.24119 8.39752 9.52134L28.1752 26.7591C29.1657 27.6212 30.8373 27.6196 31.8248 26.7591L51.5978 9.52289C51.9182 9.23964 52.4058 9.27215 52.6906 9.59873C52.9723 9.92067 52.9382 10.4082 52.6163 10.6899L32.8417 27.9245C32.0585 28.6087 31.0293 28.9507 30 28.9507Z" fill="#2580CC"/>
</svg>
