<svg width="36" height="49" viewBox="0 0 36 49" fill="none" xmlns="http://www.w3.org/2000/svg">
<path d="M35.1376 48.0629H0.72893C0.529397 48.0629 0.338602 47.9813 0.201695 47.8371C0.0647888 47.6929 -0.00803378 47.4992 0.000704928 47.2997L1.63921 12.891C1.65815 12.5022 1.97711 12.1978 2.36744 12.1978H33.4991C33.888 12.1978 34.2084 12.5022 34.2273 12.891L35.8658 47.2997C35.8745 47.4992 35.8032 47.6929 35.6648 47.8371C35.5265 47.9813 35.3357 48.0629 35.1376 48.0629ZM1.49211 46.6064H34.3729L32.8044 13.6542H3.06071L1.49211 46.6064Z" fill="#2580CC"/>
<path d="M25.8046 16.5671C25.4026 16.5671 25.0764 16.2409 25.0764 15.8389V8.60034C25.0764 4.6621 21.8722 1.45645 17.9325 1.45645C13.9928 1.45645 10.7886 4.6621 10.7886 8.60034V15.8389C10.7886 16.2409 10.4624 16.5671 10.0604 16.5671C9.6584 16.5671 9.33215 16.2409 9.33215 15.8389V8.60034C9.33215 3.85814 13.1903 0 17.9325 0C22.6747 0 26.5328 3.85814 26.5328 8.60034V15.8389C26.5328 16.2409 26.2081 16.5671 25.8046 16.5671Z" fill="#2580CC"/>
</svg>
