<svg width="48" height="29" viewBox="0 0 48 29" fill="none" xmlns="http://www.w3.org/2000/svg">
<path d="M47.3455 28.1565H0.654468C0.293202 28.1565 0 27.8633 0 27.5021V0.654468C0 0.293202 0.293202 0 0.654468 0H47.3455C47.7068 0 48 0.293202 48 0.654468V27.5034C48 27.8646 47.7068 28.1565 47.3455 28.1565ZM1.30894 26.8476H46.6911V1.30894H1.30894V26.8476Z" fill="#2580CC"/>
<path d="M47.3455 6.81694C43.9475 6.81694 41.1831 4.05247 41.1831 0.654468C41.1831 0.293202 41.4763 0 41.8375 0C42.1988 0 42.492 0.293202 42.492 0.654468C42.492 3.33124 44.6701 5.508 47.3455 5.508C47.7068 5.508 48 5.8012 48 6.16247C48 6.52374 47.7068 6.81694 47.3455 6.81694Z" fill="#2580CC"/>
<path d="M41.8362 28.1565C41.4749 28.1565 41.1817 27.8633 41.1817 27.5021C41.1817 24.1041 43.9462 21.3396 47.3442 21.3396C47.7055 21.3396 47.9987 21.6328 47.9987 21.9941C47.9987 22.3553 47.7055 22.6485 47.3442 22.6485C44.6674 22.6485 42.4907 24.8266 42.4907 27.5021C42.4907 27.8646 42.1988 28.1565 41.8362 28.1565Z" fill="#2580CC"/>
<path d="M0.654468 6.81694C0.293202 6.81694 0 6.52374 0 6.16247C0 5.8012 0.293202 5.508 0.654468 5.508C3.33124 5.508 5.508 3.32993 5.508 0.654468C5.508 0.293202 5.8012 0 6.16247 0C6.52374 0 6.81694 0.293202 6.81694 0.654468C6.81694 4.05247 4.05247 6.81694 0.654468 6.81694Z" fill="#2580CC"/>
<path d="M6.16247 28.1565C5.8012 28.1565 5.508 27.8633 5.508 27.5021C5.508 24.8253 3.32993 22.6485 0.654468 22.6485C0.293202 22.6485 0 22.3553 0 21.9941C0 21.6328 0.293202 21.3396 0.654468 21.3396C4.05247 21.3396 6.81694 24.1041 6.81694 27.5021C6.81694 27.8646 6.52505 28.1565 6.16247 28.1565Z" fill="#2580CC"/>
<path d="M24.2755 20.9414C22.4836 20.9414 20.2414 19.8249 19.2911 19.071C19.0084 18.8471 18.96 18.4348 19.1851 18.1521C19.4102 17.8694 19.8212 17.8209 20.104 18.0461C20.922 18.694 22.8776 19.6325 24.2755 19.6325C25.6355 19.6325 27.6474 18.906 27.6474 17.3445C27.6474 15.9505 26.2769 15.4007 24.4863 14.8274L23.9562 14.6546C22.5399 14.1782 19.5948 13.1847 19.5948 10.7998C19.5948 8.49476 21.388 6.94629 24.0556 6.94629C26.7442 6.94629 28.4301 8.32722 28.5008 8.38612C28.7783 8.6178 28.8162 9.03012 28.5833 9.30761C28.3529 9.5838 27.9419 9.62306 27.6631 9.39269C27.6369 9.37175 26.2403 8.25523 24.0543 8.25523C22.1106 8.25523 20.9024 9.23038 20.9024 10.7998C20.9024 12.0734 22.6564 12.8365 24.3724 13.4151L24.8829 13.5813C26.5034 14.0996 28.9537 14.8837 28.9537 17.3445C28.9563 19.8262 26.2193 20.9414 24.2755 20.9414Z" fill="#2580CC"/>
<path d="M24.0557 22.8906C23.6944 22.8906 23.4012 22.5974 23.4012 22.2361V5.98308C23.4012 5.62181 23.6944 5.32861 24.0557 5.32861C24.4169 5.32861 24.7101 5.62181 24.7101 5.98308V22.2361C24.7101 22.5974 24.4169 22.8906 24.0557 22.8906Z" fill="#2580CC"/>
</svg>
