<svg width="48" height="42" viewBox="0 0 48 42" fill="none" xmlns="http://www.w3.org/2000/svg">
<path d="M10.4145 41.1267C4.672 41.1267 0 36.4547 0 30.7121C0 24.9696 4.672 20.2961 10.4145 20.2961C16.1571 20.2961 20.8305 24.9681 20.8305 30.7121C20.8305 36.4561 16.1571 41.1267 10.4145 41.1267ZM10.4145 21.7507C5.47491 21.7507 1.45455 25.7711 1.45455 30.7121C1.45455 35.6518 5.47491 39.6721 10.4145 39.6721C15.3556 39.6721 19.376 35.6518 19.376 30.7121C19.376 25.7711 15.3556 21.7507 10.4145 21.7507Z" fill="#2580CC"/>
<path d="M20.1033 12.7249C19.7019 12.7249 19.3761 12.3991 19.3761 11.9977C19.3761 8.94895 16.8961 6.4704 13.8488 6.4704C11.5244 6.4704 9.43278 7.93949 8.64587 10.1257C8.5106 10.5009 8.0946 10.7002 7.71496 10.562C7.33678 10.4268 7.14187 10.0093 7.27715 9.63113C8.2706 6.8704 10.9121 5.0144 13.8473 5.0144C17.6975 5.0144 20.8291 8.14604 20.8291 11.9962C20.8306 12.3991 20.5048 12.7249 20.1033 12.7249Z" fill="#2580CC"/>
<path d="M20.1033 31.4392C19.7018 31.4392 19.376 31.1134 19.376 30.712V11.9978C19.376 11.5963 19.7018 11.2705 20.1033 11.2705C20.5047 11.2705 20.8306 11.5963 20.8306 11.9978V30.712C20.8306 31.1134 20.5047 31.4392 20.1033 31.4392Z" fill="#2580CC"/>
<path d="M1.22915 28.3702C1.14333 28.3702 1.05606 28.3557 0.970242 28.3222C0.59497 28.1797 0.405879 27.7593 0.548424 27.3841L7.18115 9.9266C7.3237 9.55133 7.74261 9.36224 8.11933 9.50478C8.49461 9.64733 8.6837 10.0677 8.54115 10.443L1.90988 27.9004C1.79933 28.1913 1.52297 28.3702 1.22915 28.3702Z" fill="#2580CC"/>
<path d="M18.5513 4.69029C18.1498 4.69029 17.824 4.36447 17.824 3.96302C17.824 2.77902 16.8597 1.81465 15.6757 1.81465C14.7724 1.81465 13.9593 2.38629 13.6538 3.23574C13.5186 3.61247 13.1011 3.81174 12.7229 3.67356C12.3447 3.53829 12.1484 3.12083 12.2851 2.74265C12.7986 1.31865 14.16 0.360107 15.6757 0.360107C17.6626 0.360107 19.2786 1.97611 19.2786 3.96302C19.2786 4.36592 18.9527 4.69029 18.5513 4.69029Z" fill="#2580CC"/>
<path d="M18.5513 7.80893C18.1498 7.80893 17.824 7.48311 17.824 7.08166V3.96311C17.824 3.56166 18.1498 3.23584 18.5513 3.23584C18.9527 3.23584 19.2786 3.56166 19.2786 3.96311V7.08166C19.2786 7.48457 18.9527 7.80893 18.5513 7.80893Z" fill="#2580CC"/>
<path d="M11.9477 6.4274C11.8619 6.4274 11.7746 6.41286 11.6888 6.3794C11.3135 6.23686 11.1244 5.8165 11.267 5.44122L12.243 2.87104C12.3855 2.49577 12.8044 2.30522 13.1811 2.44922C13.5564 2.59177 13.7455 3.01213 13.603 3.3874L12.627 5.95904C12.5164 6.24995 12.2415 6.4274 11.9477 6.4274Z" fill="#2580CC"/>
<path d="M37.5855 41.1269C31.8429 41.1269 27.1695 36.4549 27.1695 30.7124C27.1695 24.9698 31.8415 20.2964 37.5855 20.2964C43.3295 20.2964 48 24.9698 48 30.7124C48 36.4549 43.328 41.1269 37.5855 41.1269ZM37.5855 21.7509C32.6444 21.7509 28.624 25.7713 28.624 30.7124C28.624 35.652 32.6444 39.6724 37.5855 39.6724C42.5251 39.6724 46.5455 35.652 46.5455 30.7124C46.5455 25.7713 42.5251 21.7509 37.5855 21.7509Z" fill="#2580CC"/>
<path d="M27.8967 12.7252C27.4953 12.7252 27.1695 12.3994 27.1695 11.9979C27.1695 8.14775 30.3011 5.01611 34.1513 5.01611C37.088 5.01611 39.728 6.87066 40.7215 9.63284C40.8582 10.011 40.6618 10.427 40.2836 10.5637C39.9026 10.7019 39.488 10.5027 39.3527 10.1259C38.5658 7.93975 36.4742 6.47066 34.1498 6.47066C31.1011 6.47066 28.6226 8.95066 28.6226 11.9979C28.624 12.3994 28.2996 12.7252 27.8967 12.7252Z" fill="#2580CC"/>
<path d="M27.8967 31.4397C27.4953 31.4397 27.1695 31.1139 27.1695 30.7124V11.9983C27.1695 11.5968 27.4953 11.271 27.8967 11.271C28.2982 11.271 28.624 11.5968 28.624 11.9983V30.7124C28.624 31.1139 28.2996 31.4397 27.8967 31.4397Z" fill="#2580CC"/>
<path d="M46.7709 28.3703C46.4771 28.3703 46.2007 28.1914 46.0916 27.902L39.4589 10.4445C39.3163 10.0693 39.5054 9.6489 39.8807 9.50635C40.2589 9.36235 40.6763 9.5529 40.8189 9.92817L47.4516 27.3856C47.5942 27.7609 47.4051 28.1813 47.0298 28.3238C46.944 28.3543 46.8567 28.3703 46.7709 28.3703Z" fill="#2580CC"/>
<path d="M29.4488 4.69029C29.0473 4.69029 28.7215 4.36447 28.7215 3.96302C28.7215 1.97611 30.3375 0.360107 32.3244 0.360107C33.84 0.360107 35.203 1.3172 35.715 2.74265C35.8517 3.12083 35.6553 3.53683 35.2771 3.67356C34.8946 3.81029 34.483 3.61247 34.3462 3.23574C34.0408 2.38629 33.2277 1.81465 32.323 1.81465C31.139 1.81465 30.1746 2.77902 30.1746 3.96302C30.176 4.36592 29.8502 4.69029 29.4488 4.69029Z" fill="#2580CC"/>
<path d="M29.4487 7.80917C29.0473 7.80917 28.7215 7.48336 28.7215 7.0819V3.96336C28.7215 3.5619 29.0473 3.23608 29.4487 3.23608C29.8502 3.23608 30.176 3.5619 30.176 3.96336V7.0819C30.176 7.48481 29.8502 7.80917 29.4487 7.80917Z" fill="#2580CC"/>
<path d="M36.0523 6.42745C35.7585 6.42745 35.4821 6.24854 35.373 5.95909L34.397 3.3889C34.2545 3.01363 34.4436 2.59327 34.8188 2.45072C35.197 2.30527 35.6145 2.49581 35.757 2.87254L36.733 5.44272C36.8756 5.81799 36.6865 6.23836 36.3112 6.3809C36.2254 6.4129 36.1381 6.42745 36.0523 6.42745Z" fill="#2580CC"/>
<path d="M27.8967 22.9814H20.1032C19.7018 22.9814 19.376 22.6556 19.376 22.2541C19.376 21.8527 19.7018 21.5268 20.1032 21.5268H27.1694V15.4614H20.1032C19.7018 15.4614 19.376 15.1356 19.376 14.7341C19.376 14.3327 19.7018 14.0068 20.1032 14.0068H27.8967C28.2982 14.0068 28.624 14.3327 28.624 14.7341V22.2541C28.624 22.6556 28.2996 22.9814 27.8967 22.9814Z" fill="#2580CC"/>
</svg>
