<svg width="48" height="49" viewBox="0 0 48 49" fill="none" xmlns="http://www.w3.org/2000/svg">
<path d="M24 48.3601C10.7665 48.3601 0 37.5936 0 24.3601C0 11.1267 10.7665 0.360107 24 0.360107C37.2335 0.360107 48 11.1267 48 24.3601C48 37.5936 37.2335 48.3601 24 48.3601ZM24 1.81465C11.568 1.81465 1.45455 11.9281 1.45455 24.3601C1.45455 36.7921 11.568 46.9056 24 46.9056C36.432 46.9056 46.5455 36.7921 46.5455 24.3601C46.5455 11.9281 36.432 1.81465 24 1.81465Z" fill="#2580CC"/>
<path d="M23.9985 35.3983C20.5396 35.3983 17.0821 34.45 13.997 32.5503L13.421 32.1954C13.0792 31.9831 12.973 31.5365 13.1825 31.1947C13.392 30.8529 13.84 30.7467 14.1832 30.9576L14.7592 31.3125C20.4596 34.8223 27.5389 34.8238 33.2378 31.3111L33.8138 30.9547C34.1556 30.7452 34.605 30.85 34.8145 31.1918C35.0254 31.5336 34.9192 31.9816 34.5774 32.1925L34 32.5489C30.9163 34.4485 27.4574 35.3983 23.9985 35.3983Z" fill="#2580CC"/>
<path d="M20.5556 19.7784C20.3694 19.7784 20.1832 19.7072 20.0407 19.5661L17.1781 16.7035L14.3156 19.5661C14.0319 19.8497 13.5709 19.8497 13.2872 19.5661C13.0036 19.2824 13.0036 18.8213 13.2872 18.5377L16.6632 15.1617C16.9469 14.8781 17.4079 14.8781 17.6916 15.1617L21.0676 18.5377C21.3512 18.8213 21.3512 19.2824 21.0676 19.5661C20.9279 19.7072 20.7418 19.7784 20.5556 19.7784Z" fill="#2580CC"/>
<path d="M34.1978 19.7784C34.0116 19.7784 33.8255 19.7072 33.6829 19.5661L30.8204 16.7035L27.9578 19.5661C27.6742 19.8497 27.2131 19.8497 26.9295 19.5661C26.6458 19.2824 26.6458 18.8213 26.9295 18.5377L30.3055 15.1617C30.5891 14.8781 31.0502 14.8781 31.3338 15.1617L34.7098 18.5377C34.9935 18.8213 34.9935 19.2824 34.7098 19.5661C34.5702 19.7072 34.384 19.7784 34.1978 19.7784Z" fill="#2580CC"/>
</svg>
