<svg width="33" height="49" viewBox="0 0 33 49" fill="none" xmlns="http://www.w3.org/2000/svg">
<path d="M23.9978 35.0649L8.74578 35.0605C8.37521 35.0605 8.06176 34.7837 8.01782 34.4146C7.84059 32.9177 7.31769 30.8041 5.82222 29.25C5.82076 29.2471 5.81929 29.2456 5.81636 29.2427C2.11944 26.12 0 21.5662 0 16.7341C0.00146471 7.70563 7.34699 0.360107 16.374 0.360107C25.401 0.360107 32.7465 7.70563 32.7465 16.7341C32.7465 21.5984 30.6007 26.18 26.8598 29.3028C25.4244 30.8056 24.9015 32.9206 24.7243 34.419C24.6833 34.7881 24.3698 35.0649 23.9978 35.0649ZM9.38147 33.5958L23.3621 33.6002C23.636 31.9495 24.2995 29.8623 25.8638 28.2335C29.3293 25.3349 31.2833 21.1619 31.2833 16.7326C31.2818 8.51268 24.5954 1.82482 16.374 1.82482C8.15258 1.82482 1.46617 8.51268 1.46617 16.7341C1.46617 21.159 3.41863 25.3305 6.82555 28.1764C6.86949 28.213 6.90904 28.2555 6.94272 28.3009C8.46163 29.9179 9.11049 31.9685 9.38147 33.5958Z" fill="#2580CC"/>
<path d="M23.9978 39.4945H8.74581C8.34155 39.4945 8.01346 39.1664 8.01346 38.7621C8.01346 38.3579 8.34155 38.0298 8.74581 38.0298H23.9978C24.4021 38.0298 24.7302 38.3579 24.7302 38.7621C24.7302 39.1664 24.4036 39.4945 23.9978 39.4945Z" fill="#2580CC"/>
<path d="M23.9978 43.9264H8.74581C8.34155 43.9264 8.01346 43.5983 8.01346 43.194C8.01346 42.7898 8.34155 42.4617 8.74581 42.4617H23.9978C24.4021 42.4617 24.7302 42.7898 24.7302 43.194C24.7302 43.5983 24.4036 43.9264 23.9978 43.9264Z" fill="#2580CC"/>
<path d="M19.5656 48.36H13.1794C12.7752 48.36 12.4471 48.0319 12.4471 47.6276C12.4471 47.2234 12.7752 46.8953 13.1794 46.8953H19.5656C19.9698 46.8953 20.2979 47.2234 20.2979 47.6276C20.2979 48.0319 19.9698 48.36 19.5656 48.36Z" fill="#2580CC"/>
</svg>
