<svg width="48" height="48" viewBox="0 0 48 48" fill="none" xmlns="http://www.w3.org/2000/svg">
<path d="M10.592 47.5048C10.4742 47.5048 10.3549 47.4757 10.2473 47.4176C10.0116 47.291 9.86473 47.0437 9.86473 46.7776V36.4154C3.49818 33.1048 0 27.3085 0 20.0459C0 8.82265 10.3171 0.360107 24 0.360107C37.6829 0.360107 48 8.82265 48 20.0459C48 31.2677 37.6829 39.7303 24 39.7303C23.5505 39.7303 23.1098 39.7056 22.6676 39.6823L22.6385 39.6808L10.992 47.3841C10.8713 47.4641 10.7316 47.5048 10.592 47.5048ZM24 1.81465C11.1476 1.81465 1.45455 9.6532 1.45455 20.0459C1.45455 24.8794 3.09527 31.4525 10.9135 35.3172C11.1607 35.4394 11.3178 35.6925 11.3178 35.9688V45.4248L22.0364 38.3354C22.1673 38.2481 22.3258 38.1972 22.4756 38.2161L22.7462 38.2306C23.1622 38.2539 23.5767 38.2757 23.9985 38.2757C36.8509 38.2757 46.544 30.4387 46.544 20.0459C46.544 9.6532 36.8524 1.81465 24 1.81465Z" fill="#2580CC"/>
<path d="M16.2604 28.0124C16.0699 28.0124 15.8837 27.9368 15.7455 27.8001C15.5753 27.6313 15.5011 27.3884 15.5448 27.1528C16.5484 21.7913 16.9266 21.4117 17.0895 21.2488L26.7622 11.5775C27.0808 11.2561 27.5069 11.0786 27.9608 11.0786H27.9622C28.416 11.0786 28.8422 11.2561 29.1637 11.5775L31.9709 14.3833C32.6299 15.0481 32.6299 16.1244 31.9724 16.7848L22.2982 26.4575C22.1368 26.6175 21.76 26.9957 16.3942 28.0008C16.3491 28.0081 16.304 28.0124 16.2604 28.0124ZM18.1702 22.2233C17.9768 22.6408 17.5491 24.5055 17.1782 26.3673C19.0968 25.9848 21.0211 25.5426 21.3571 25.3593L30.9426 15.7564C31.0386 15.6604 31.0371 15.5062 30.9411 15.4073L28.1353 12.6044C28.0757 12.5448 28.0088 12.5317 27.9622 12.5317C27.9171 12.5317 27.8502 12.5448 27.792 12.603L18.1702 22.2233Z" fill="#2580CC"/>
<path d="M21.7833 26.6697C21.5971 26.6697 21.4109 26.5984 21.2684 26.4573L17.088 22.277C16.8044 21.9933 16.8044 21.5323 17.088 21.2486C17.3716 20.965 17.8327 20.965 18.1164 21.2486L22.2967 25.429C22.5804 25.7126 22.5804 26.1737 22.2967 26.4573C22.1556 26.5984 21.9695 26.6697 21.7833 26.6697Z" fill="#2580CC"/>
</svg>
