<svg width="52" height="52" viewBox="0 0 52 52" fill="none" xmlns="http://www.w3.org/2000/svg">
<path fill-rule="evenodd" clip-rule="evenodd" d="M25.8438 52C40.1147 52 51.6875 40.4272 51.6875 26.1562C51.6875 11.8853 40.1147 0.3125 25.8438 0.3125C11.5728 0.3125 0 11.8853 0 26.1562C0 40.4272 11.5728 52 25.8438 52ZM25.5264 40.6217C25.5822 40.6269 25.638 40.6289 25.6928 40.6289C26.5281 40.6289 27.2879 40.1245 27.6052 39.3419L36.0262 18.6669C36.3404 17.8957 36.1616 17.0119 35.5734 16.4247C34.9862 15.8365 34.1034 15.6587 33.3322 15.9719L12.6572 24.3928C11.823 24.7329 11.304 25.5755 11.3764 26.4738C11.4488 27.3721 12.0938 28.1205 12.9725 28.3232L21.6705 30.3286L23.677 39.0256C23.8796 39.9043 24.628 40.5504 25.5264 40.6217Z" fill="white"/>
</svg>
