<svg width="49" height="53" viewBox="0 0 49 53" fill="none" xmlns="http://www.w3.org/2000/svg">
<g clip-path="url(#clip0)">
<path d="M24 3.0415C20.8112 3.0415 11.1071 3.0415 5.74208 7.94009C2.54725 11.1228 1.04166 15.7218 1.04166 22.3748V25.9998C1.04166 32.6529 2.54725 37.2518 5.77954 40.4708C7.38904 41.939 9.58337 43.1123 12.2659 43.9231L13.125 44.1816V50.6196C13.125 51.3748 13.3437 51.3748 13.4162 51.3748C13.5648 51.3748 13.8029 51.3277 14.2548 50.9266C14.3635 50.819 15.161 49.9563 19.0398 45.6111L19.4313 45.1725L20.0173 45.2099C21.3163 45.2909 22.6563 45.3332 24 45.3332C27.1888 45.3332 36.8929 45.3332 42.2579 40.4334C45.4515 37.2506 46.9583 32.6517 46.9583 25.9998V22.3748C46.9583 15.7218 45.4527 11.1228 42.2205 7.90384C36.8929 3.0415 27.1888 3.0415 24 3.0415Z" fill="white"/>
<path d="M35.42 31.8652C34.0775 30.7342 33.4576 30.3923 31.604 29.2794C30.8319 28.8166 29.655 28.4167 29.0375 28.4167C28.6158 28.4167 28.1107 28.7393 27.8014 29.0486C27.0087 29.8413 26.749 30.8333 25.3594 30.8333C24 30.8333 21.6256 29.4498 19.9219 27.6615C18.1335 25.9577 16.75 23.5833 16.75 22.224C16.75 20.8344 17.7239 20.5565 18.5166 19.7626C18.8259 19.4545 19.1667 18.9494 19.1667 18.5277C19.1667 17.9102 18.7667 16.7514 18.3039 15.9793C17.191 14.1245 16.8503 13.5046 15.7181 12.1634C15.335 11.709 14.8988 11.5012 14.4421 11.5C13.67 11.4988 12.6562 11.8818 11.9698 12.393C10.9379 13.1627 9.85888 14.2103 9.57009 15.5153C9.53142 15.6929 9.50846 15.8718 9.50121 16.0506C9.44563 17.41 9.97971 18.7899 10.5561 19.9583C11.913 22.7121 13.7086 25.3777 15.6625 27.7581C16.2872 28.5194 16.9675 29.2275 17.672 29.9114C18.3559 30.6146 19.064 31.2949 19.8252 31.9208C22.2056 33.8747 24.8712 35.6703 27.625 37.0272C28.7826 37.5976 30.1456 38.122 31.4917 38.0833C31.6838 38.0773 31.8759 38.0555 32.068 38.0133C33.373 37.7257 34.4207 36.6454 35.1904 35.6135C35.7015 34.9272 36.0845 33.9146 36.0833 33.1412C36.0821 32.6845 35.8743 32.2483 35.42 31.8652Z" fill="#2580CC"/>
<path d="M36.0833 25.9998C35.4163 25.9998 34.875 25.4585 34.875 24.7915V23.5832C34.875 17.5874 29.9958 12.7082 24 12.7082C23.333 12.7082 22.7917 12.1668 22.7917 11.4998C22.7917 10.8328 23.333 10.2915 24 10.2915C31.3285 10.2915 37.2917 16.2546 37.2917 23.5832V24.7915C37.2917 25.4585 36.7503 25.9998 36.0833 25.9998Z" fill="#2580CC"/>
<path d="M28.6618 23.5832C28.1253 23.5832 27.6347 23.2231 27.4933 22.6794C27.1622 21.4094 26.1714 20.4174 24.9063 20.0911C24.2598 19.9232 23.8719 19.2646 24.0387 18.6182C24.2054 17.9729 24.8628 17.5851 25.5116 17.7506C27.6238 18.298 29.2792 19.9522 29.8314 22.0692C29.9994 22.7156 29.6127 23.3742 28.9675 23.5433C28.8648 23.5699 28.762 23.5832 28.6618 23.5832Z" fill="#2580CC"/>
<path d="M32.4583 24.7918C31.7913 24.7918 31.25 24.2505 31.25 23.5835C31.25 19.7313 28.2364 16.5534 24.3891 16.3504C23.7221 16.3154 23.211 15.7462 23.246 15.0804C23.281 14.4134 23.8598 13.9011 24.516 13.9374C29.6477 14.208 33.6667 18.4456 33.6667 23.5835C33.6667 24.2505 33.1253 24.7918 32.4583 24.7918Z" fill="#2580CC"/>
<path d="M24 1.8335C18.5625 1.8335 10.0897 2.33375 4.92767 7.04866C1.2785 10.6821 -0.166663 15.7789 -0.166663 22.3752C-0.166663 22.9213 -0.169079 23.5303 -0.164246 24.1877C-0.169079 24.8438 -0.166663 25.4528 -0.166663 25.999C-0.166663 32.5952 1.2785 37.692 4.92767 41.3255C6.89242 43.1198 9.34292 44.3004 11.9167 45.0785V50.6199C11.9167 52.5485 13.1842 52.5835 13.4162 52.5835H13.4271C14.024 52.5811 14.54 52.2887 15.0571 51.8295C15.2517 51.6567 17.498 49.153 19.9412 46.415C21.396 46.508 22.7784 46.5418 23.9988 46.5418C29.4363 46.5418 37.9079 46.0404 43.0711 41.3255C46.7191 37.6932 48.1655 32.5952 48.1655 25.999C48.1655 25.4528 48.1679 24.8438 48.163 24.1865C48.1679 23.5291 48.1655 22.9213 48.1655 22.374C48.1655 15.7777 46.7203 10.6809 43.0711 7.04745C37.9091 2.33375 29.4375 1.8335 24 1.8335ZM44.5417 25.5785V25.999C44.5417 31.927 43.279 35.9665 40.5711 38.701C35.8803 42.9168 26.9447 42.9168 23.9988 42.9168C23.1022 42.9168 21.6474 42.9156 19.9303 42.796C19.453 43.3325 14.3333 49.0588 14.3333 49.0588V41.9743C11.791 41.3641 9.27888 40.3636 7.42892 38.7022C4.72105 35.9665 3.45834 31.927 3.45834 25.999V25.5785C3.45834 25.1543 3.45713 24.6964 3.46075 24.1611C3.45713 23.6777 3.45713 23.221 3.45834 22.7957V22.3752C3.45834 16.4471 4.72105 12.4076 7.42892 9.67316C12.1185 5.45729 21.0553 5.45729 24 5.45729C26.9447 5.45729 35.8803 5.45729 40.5699 9.67316C43.279 12.4076 44.5405 16.4471 44.5405 22.3752V22.7957C44.5405 23.2198 44.5417 23.6777 44.538 24.213C44.5417 24.6976 44.5417 25.1543 44.5417 25.5785Z" fill="white"/>
</g>
<defs>
<clipPath id="clip0">
<rect width="49" height="53" fill="white"/>
</clipPath>
</defs>
</svg>
