<svg width="51" height="51" viewBox="0 0 51 51" fill="none" xmlns="http://www.w3.org/2000/svg">
<circle cx="25.5" cy="25.5" r="25.5" fill="white"/>
<path fill-rule="evenodd" clip-rule="evenodd" d="M37.9395 28.972C37.6566 28.7042 37.3737 28.4364 37.0952 28.1643C36.1497 27.2418 36.0895 26.707 36.851 25.6448C37.2925 25.0257 37.7521 24.4195 38.2118 23.8132C38.6149 23.2816 39.0181 22.7499 39.4091 22.2093C39.4367 22.1711 39.4643 22.1329 39.4919 22.0947C40.2459 21.0522 41.0032 20.0051 41.3998 18.7568C41.6609 17.9332 41.4297 17.5699 40.5854 17.4255C40.4391 17.4003 40.2892 17.3989 40.1416 17.3989L35.1321 17.3929C34.515 17.3837 34.1747 17.6527 33.9558 18.1995C33.6615 18.9389 33.3585 19.6769 33.0071 20.3902C32.2112 22.0074 31.3223 23.57 30.0747 24.8939C30.0571 24.9126 30.0393 24.9316 30.0213 24.9508C29.7601 25.2302 29.4667 25.544 29.0364 25.402C28.4625 25.1928 28.2924 24.2455 28.302 23.9259L28.2974 18.1447C28.1861 17.3189 28.0022 16.951 27.1823 16.79L21.9801 16.791C21.2853 16.791 20.9376 17.0595 20.5665 17.4936C20.3527 17.7447 20.2883 17.9075 20.7279 17.9907C21.5911 18.1544 22.078 18.7136 22.2068 19.5795C22.4137 20.9631 22.3995 22.3519 22.2799 23.741C22.245 24.1466 22.1755 24.5513 22.0146 24.9297C21.763 25.5252 21.3565 25.6462 20.8231 25.2801C20.3398 24.9486 20.0005 24.4805 19.668 24.011C18.4204 22.2479 17.4249 20.3469 16.6128 18.3489C16.3778 17.7718 15.9732 17.4219 15.3616 17.4122C13.8588 17.3883 12.356 17.3846 10.8533 17.4136C9.94874 17.4306 9.67927 17.8693 10.0476 18.6892C11.6842 22.3298 13.5056 25.8687 15.8839 29.0932C17.1053 30.7472 18.5069 32.2081 20.3178 33.2433C22.3705 34.4168 24.5791 34.7699 26.9069 34.661C27.9962 34.6099 28.3236 34.3262 28.3738 33.2405C28.4087 32.4978 28.4924 31.7584 28.8589 31.0912C29.2185 30.4354 29.7639 30.3104 30.3916 30.7187C30.7061 30.9224 30.97 31.1813 31.2207 31.4563C31.4237 31.678 31.6242 31.9022 31.8247 32.1263C32.2302 32.5795 32.6358 33.0328 33.0619 33.4663C33.8597 34.2793 34.8061 34.7589 35.9952 34.6605L40.5996 34.6614C41.3409 34.6122 41.7262 33.704 41.2995 32.8758C41.0006 32.2951 40.6079 31.7787 40.1913 31.2793C39.501 30.4506 38.7203 29.7113 37.9395 28.972Z" fill="#2580CC"/>
</svg>
