<svg width="20" height="20" viewBox="0 0 20 20" fill="none" xmlns="http://www.w3.org/2000/svg">
<g clip-path="url(#clip0)">
<path d="M19.9573 15.4963C19.9007 15.3259 19.5408 15.0748 18.8778 14.7437C18.6982 14.6393 18.4423 14.4974 18.1112 14.3175C17.7797 14.1375 17.4789 13.9717 17.2092 13.8202C16.9389 13.6687 16.6857 13.5219 16.4492 13.3801C16.4114 13.3517 16.293 13.2689 16.0942 13.1313C15.8951 12.9941 15.7272 12.8923 15.5897 12.8258C15.4524 12.7598 15.3174 12.7266 15.1848 12.7266C14.9954 12.7266 14.7589 12.8616 14.4749 13.1313C14.191 13.4014 13.9305 13.6947 13.6938 14.0122C13.4572 14.3296 13.2062 14.6229 12.9413 14.8928C12.676 15.1628 12.4581 15.2977 12.2878 15.2977C12.2023 15.2977 12.0958 15.2739 11.9681 15.2268C11.8404 15.1795 11.7433 15.139 11.6766 15.1063C11.6105 15.0729 11.4972 15.0068 11.3361 14.9071C11.1747 14.8076 11.0849 14.7532 11.066 14.7437C9.76875 14.0238 8.65616 13.1999 7.72804 12.2722C6.80023 11.3439 5.97624 10.2314 5.25659 8.93402C5.24713 8.91507 5.19256 8.82507 5.0932 8.66417C4.9937 8.50313 4.92738 8.38964 4.89425 8.32318C4.86111 8.25696 4.82086 8.15984 4.7736 8.03203C4.72633 7.90422 4.7026 7.79775 4.7026 7.71243C4.7026 7.54208 4.83758 7.32417 5.10748 7.05899C5.37733 6.79396 5.67097 6.54292 5.98808 6.30635C6.30545 6.06978 6.59878 5.80928 6.86873 5.5253C7.13859 5.24117 7.27351 5.00455 7.27351 4.8152C7.27351 4.68271 7.24038 4.54763 7.17416 4.41037C7.10789 4.27281 7.0061 4.10495 6.86873 3.90599C6.73132 3.70713 6.64848 3.58887 6.62003 3.55081C6.47813 3.31425 6.33152 3.06096 6.17982 2.79106C6.02813 2.52121 5.86256 2.22041 5.68256 1.88901C5.50271 1.55777 5.36077 1.302 5.25649 1.1221C4.92524 0.459356 4.67434 0.0993537 4.50385 0.0427365C4.43753 0.0143284 4.33802 0 4.20559 0C3.94976 0 3.61603 0.0472639 3.20414 0.14209C2.7921 0.236767 2.46787 0.336071 2.2311 0.4404C1.75761 0.639157 1.25577 1.21677 0.725419 2.17305C0.242482 3.063 0.0010376 3.94385 0.0010376 4.81495C0.0010376 5.07042 0.0176048 5.31898 0.0507393 5.56067C0.0838738 5.80212 0.143078 6.07441 0.228402 6.37749C0.313576 6.68048 0.382283 6.90556 0.434224 7.05212C0.486214 7.19879 0.583279 7.46153 0.72537 7.84044C0.867261 8.21924 0.952585 8.45114 0.980993 8.53636C1.31239 9.46443 1.70537 10.2929 2.15985 11.0221C2.90762 12.2342 3.92807 13.4868 5.22062 14.7794C6.51321 16.072 7.76555 17.0924 8.9777 17.8404C9.70681 18.2949 10.5356 18.6878 11.4635 19.0194C11.5488 19.0477 11.7807 19.1328 12.1594 19.2752C12.5382 19.4172 12.801 19.5143 12.9477 19.5664C13.0944 19.6185 13.3195 19.6873 13.6222 19.7726C13.9256 19.8579 14.1977 19.9171 14.4391 19.9505C14.6807 19.9832 14.9293 20 15.1848 20C16.0559 20 16.9368 19.7585 17.8269 19.2756C18.7831 18.7454 19.3605 18.2435 19.5594 17.7696C19.664 17.5331 19.763 17.2088 19.8577 16.7968C19.9527 16.3849 19.9998 16.0512 19.9998 15.7955C20.0001 15.6625 19.9859 15.5632 19.9573 15.4963Z" fill="#70848B"/>
</g>
<defs>
<clipPath id="clip0">
<rect width="20" height="20" fill="white"/>
</clipPath>
</defs>
</svg>
