<svg width="23" height="23" viewBox="0 0 23 23" fill="none" xmlns="http://www.w3.org/2000/svg">
<path d="M23 17.2499C23 17.7541 22.8582 18.2216 22.631 18.6328L15.3689 10.5076L22.5522 4.22288C22.8317 4.66632 23 5.18723 23 5.75012V17.2499ZM11.5 11.9829L21.4954 3.23725C21.0852 3.0127 20.6233 2.875 20.1251 2.875H2.87498C2.37612 2.875 1.9141 3.0127 1.50558 3.23725L11.5 11.9829ZM14.2866 11.4538L11.973 13.4795C11.8377 13.5974 11.6692 13.6563 11.5 13.6563C11.3308 13.6563 11.1623 13.5974 11.027 13.4795L8.71278 11.4537L1.35887 19.6828C1.79967 19.9593 2.31625 20.125 2.87493 20.125H20.1251C20.6837 20.125 21.2005 19.9593 21.6411 19.6828L14.2866 11.4538ZM0.447855 4.22283C0.168467 4.66628 0 5.18718 0 5.75012V17.25C0 17.7542 0.141163 18.2216 0.369215 18.6329L7.6304 10.5063L0.447855 4.22283Z" fill="#70848B"/>
</svg>
