<svg width="32" height="18" viewBox="0 0 32 18" fill="none" xmlns="http://www.w3.org/2000/svg">
<path fill-rule="evenodd" clip-rule="evenodd" d="M28.0515 12.182C27.7686 11.9142 27.4857 11.6463 27.2072 11.3742C26.2617 10.4518 26.2015 9.91699 26.963 8.85475C27.4045 8.23565 27.8641 7.62946 28.3238 7.0232C28.7269 6.49154 29.1301 5.95982 29.5211 5.41926C29.5487 5.38106 29.5763 5.34287 29.6039 5.30468C30.3579 4.26216 31.1152 3.21502 31.5118 1.96675C31.7729 1.14317 31.5417 0.779895 30.6974 0.635504C30.5511 0.610213 30.4012 0.608833 30.2536 0.608833L25.2441 0.602855C24.627 0.593658 24.2867 0.862667 24.0678 1.40942C23.7735 2.14885 23.4705 2.8869 23.1191 3.60012C22.3232 5.21739 21.4343 6.77994 20.1867 8.10383C20.1691 8.12253 20.1513 8.14155 20.1333 8.16073C19.8721 8.44015 19.5787 8.75395 19.1484 8.61196C18.5745 8.40273 18.4044 7.45545 18.414 7.13586L18.4094 1.3547C18.2981 0.528821 18.1142 0.160945 17.2943 0L12.0921 0.000918944C11.3973 0.000918944 11.0496 0.269468 10.6785 0.70356C10.4647 0.954635 10.4003 1.11742 10.8399 1.20065C11.7031 1.36436 12.19 1.92353 12.3188 2.78941C12.5257 4.17308 12.5115 5.56181 12.3919 6.951C12.357 7.35658 12.2875 7.76124 12.1266 8.1397C11.875 8.73519 11.4685 8.85613 10.9351 8.4901C10.4518 8.15855 10.1125 7.69043 9.78 7.22093C8.53244 5.45789 7.53688 3.55689 6.72479 1.55887C6.48981 0.981767 6.08515 0.631825 5.47356 0.622168C3.97079 0.598256 2.46802 0.594577 0.96525 0.623548C0.0607369 0.640562 -0.208732 1.07925 0.159603 1.89915C1.79619 5.53974 3.61763 9.0787 5.99594 12.3031C7.21729 13.9572 8.61889 15.4181 10.4298 16.4532C12.4825 17.6267 14.6911 17.9799 17.0189 17.8709C18.1082 17.8199 18.4356 17.5361 18.4858 16.4505C18.5207 15.7078 18.6044 14.9684 18.9709 14.3011C19.3305 13.6454 19.8759 13.5203 20.5036 13.9287C20.8181 14.1324 21.082 14.3913 21.3327 14.6663C21.5357 14.888 21.7362 15.1121 21.9367 15.3363C22.3422 15.7895 22.7478 16.2427 23.1739 16.6762C23.9717 17.4892 24.9181 17.9689 26.1072 17.8705L30.7116 17.8714C31.4529 17.8222 31.8382 16.914 31.4115 16.0858C31.1126 15.505 30.7199 14.9886 30.3033 14.4892C29.613 13.6605 28.8323 12.9213 28.0515 12.182Z" fill="#70848B"/>
</svg>
