<svg width="25" height="25" viewBox="0 0 25 25" fill="none" xmlns="http://www.w3.org/2000/svg">
<path d="M22.744 2.06714L2.06905 10.4881L12.0261 12.7851L14.3231 22.7421L22.744 2.06714Z" fill="#70848B"/>
<path d="M14.3231 24.8096C14.2683 24.8096 14.2125 24.8075 14.1567 24.8023C13.2583 24.731 12.5099 24.0849 12.3073 23.2062L10.3008 14.5093L1.60282 12.5038C0.724129 12.3012 0.0790688 11.5528 0.00670629 10.6544C-0.0656562 9.75611 0.453287 8.91361 1.28752 8.57351L21.9625 0.152579C22.7337 -0.160647 23.6165 0.0171573 24.2037 0.605361C24.7919 1.19253 24.9707 2.07639 24.6565 2.84756L16.2355 23.5226C15.9182 24.3051 15.1584 24.8096 14.3231 24.8096ZM8.89385 9.94116L12.4903 10.7702C13.2604 10.948 13.8621 11.5497 14.0399 12.3208L14.87 15.9173L18.9771 5.83407L8.89385 9.94116Z" fill="#70848B"/>
</svg>
