<svg width="233" height="27" viewBox="0 0 233 27" fill="none" xmlns="http://www.w3.org/2000/svg">
<path d="M20.212 12.824C21.7 13.376 22.852 14.18 23.668 15.236C24.484 16.292 24.892 17.564 24.892 19.052C24.892 21.26 23.98 22.976 22.156 24.2C20.332 25.4 17.692 26 14.236 26H0.0520001L0.0520001 0.799998H13.516C16.876 0.799998 19.408 1.4 21.112 2.6C22.84 3.8 23.704 5.396 23.704 7.388C23.704 8.564 23.404 9.62 22.804 10.556C22.228 11.492 21.364 12.248 20.212 12.824ZM8.404 6.74V10.484H12.364C14.212 10.484 15.136 9.86 15.136 8.612C15.136 7.364 14.212 6.74 12.364 6.74H8.404ZM13.516 20.06C15.388 20.06 16.324 19.4 16.324 18.08C16.324 16.76 15.388 16.1 13.516 16.1H8.404V20.06H13.516ZM38.0478 26.36C35.8638 26.36 33.8958 25.928 32.1438 25.064C30.4158 24.176 29.0598 22.964 28.0758 21.428C27.0918 19.868 26.5998 18.104 26.5998 16.136C26.5998 14.168 27.0918 12.416 28.0758 10.88C29.0598 9.32 30.4158 8.108 32.1438 7.244C33.8958 6.38 35.8638 5.948 38.0478 5.948C40.2558 5.948 42.2238 6.38 43.9518 7.244C45.7038 8.108 47.0598 9.32 48.0198 10.88C49.0038 12.416 49.4958 14.168 49.4958 16.136C49.4958 18.104 49.0038 19.868 48.0198 21.428C47.0598 22.964 45.7038 24.176 43.9518 25.064C42.2238 25.928 40.2558 26.36 38.0478 26.36ZM38.0478 20.024C38.9838 20.024 39.7518 19.688 40.3518 19.016C40.9518 18.32 41.2518 17.36 41.2518 16.136C41.2518 14.912 40.9518 13.964 40.3518 13.292C39.7518 12.62 38.9838 12.284 38.0478 12.284C37.1118 12.284 36.3438 12.62 35.7438 13.292C35.1438 13.964 34.8438 14.912 34.8438 16.136C34.8438 17.36 35.1438 18.32 35.7438 19.016C36.3438 19.688 37.1118 20.024 38.0478 20.024ZM66.5502 25.316C65.3262 26.012 63.6582 26.36 61.5462 26.36C58.7862 26.36 56.6622 25.7 55.1742 24.38C53.6862 23.036 52.9422 21.032 52.9422 18.368V13.328H50.2422V7.388H52.9422V1.88H61.0782V7.388L65.1102 7.388V13.328L61.0782 13.328V18.296C61.0782 18.896 61.2342 19.364 61.5462 19.7C61.8582 20.036 62.2662 20.204 62.7702 20.204C63.4662 20.204 64.0782 20.024 64.6062 19.664L66.5502 25.316Z" fill="#2580CC"/>
<path d="M81.8848 26.576C79.2208 26.576 76.8208 26.024 74.6848 24.92C72.5488 23.792 70.8688 22.232 69.6448 20.24C68.4448 18.224 67.8448 15.944 67.8448 13.4C67.8448 10.856 68.4448 8.588 69.6448 6.596C70.8688 4.58 72.5488 3.02 74.6848 1.916C76.8208 0.787999 79.2208 0.223999 81.8848 0.223999C84.3328 0.223999 86.5168 0.655999 88.4368 1.52C90.3568 2.384 91.9408 3.632 93.1888 5.264L87.8248 10.052C86.2648 8.084 84.4288 7.1 82.3168 7.1C80.5408 7.1 79.1128 7.676 78.0328 8.828C76.9528 9.956 76.4128 11.48 76.4128 13.4C76.4128 15.32 76.9528 16.856 78.0328 18.008C79.1128 19.136 80.5408 19.7 82.3168 19.7C84.4288 19.7 86.2648 18.716 87.8248 16.748L93.1888 21.536C91.9408 23.168 90.3568 24.416 88.4368 25.28C86.5168 26.144 84.3328 26.576 81.8848 26.576ZM103.13 8.432C104.57 6.776 106.694 5.948 109.502 5.948V13.148C108.854 13.052 108.254 13.004 107.702 13.004C104.918 13.004 103.526 14.42 103.526 17.252V26H95.3898V6.308H103.13V8.432ZM132.584 16.136C132.584 16.256 132.548 16.892 132.476 18.044H118.796C119.084 18.788 119.564 19.364 120.236 19.772C120.908 20.156 121.748 20.348 122.756 20.348C123.62 20.348 124.34 20.24 124.916 20.024C125.516 19.808 126.164 19.436 126.86 18.908L131.108 23.192C129.188 25.304 126.32 26.36 122.504 26.36C120.128 26.36 118.04 25.928 116.24 25.064C114.44 24.176 113.048 22.952 112.064 21.392C111.08 19.832 110.588 18.08 110.588 16.136C110.588 14.168 111.068 12.416 112.028 10.88C113.012 9.32 114.344 8.108 116.024 7.244C117.728 6.38 119.636 5.948 121.748 5.948C123.74 5.948 125.552 6.344 127.184 7.136C128.84 7.928 130.148 9.092 131.108 10.628C132.092 12.164 132.584 14 132.584 16.136ZM121.82 11.492C120.98 11.492 120.284 11.72 119.732 12.176C119.18 12.632 118.82 13.28 118.652 14.12H124.988C124.82 13.304 124.46 12.668 123.908 12.212C123.356 11.732 122.66 11.492 121.82 11.492ZM143.444 5.948C146.9 5.948 149.54 6.728 151.364 8.288C153.188 9.824 154.1 12.2 154.1 15.416V26H146.54V23.408C145.604 25.376 143.744 26.36 140.96 26.36C139.4 26.36 138.068 26.096 136.964 25.568C135.884 25.016 135.056 24.284 134.48 23.372C133.928 22.436 133.652 21.392 133.652 20.24C133.652 18.296 134.396 16.82 135.884 15.812C137.372 14.804 139.628 14.3 142.652 14.3H145.928C145.664 12.764 144.428 11.996 142.22 11.996C141.332 11.996 140.432 12.14 139.52 12.428C138.608 12.692 137.828 13.064 137.18 13.544L134.588 8.18C135.716 7.484 137.072 6.944 138.656 6.56C140.264 6.152 141.86 5.948 143.444 5.948ZM143.408 21.464C143.984 21.464 144.5 21.308 144.956 20.996C145.412 20.684 145.748 20.216 145.964 19.592V18.224H143.948C142.292 18.224 141.464 18.776 141.464 19.88C141.464 20.336 141.632 20.72 141.968 21.032C142.328 21.32 142.808 21.464 143.408 21.464ZM172.124 25.316C170.9 26.012 169.232 26.36 167.12 26.36C164.36 26.36 162.236 25.7 160.748 24.38C159.26 23.036 158.516 21.032 158.516 18.368V13.328H155.816V7.388H158.516V1.88H166.652V7.388H170.684V13.328H166.652V18.296C166.652 18.896 166.808 19.364 167.12 19.7C167.432 20.036 167.84 20.204 168.344 20.204C169.04 20.204 169.652 20.024 170.18 19.664L172.124 25.316ZM184.052 26.36C181.868 26.36 179.9 25.928 178.148 25.064C176.42 24.176 175.064 22.964 174.08 21.428C173.096 19.868 172.604 18.104 172.604 16.136C172.604 14.168 173.096 12.416 174.08 10.88C175.064 9.32 176.42 8.108 178.148 7.244C179.9 6.38 181.868 5.948 184.052 5.948C186.26 5.948 188.228 6.38 189.956 7.244C191.708 8.108 193.064 9.32 194.024 10.88C195.008 12.416 195.5 14.168 195.5 16.136C195.5 18.104 195.008 19.868 194.024 21.428C193.064 22.964 191.708 24.176 189.956 25.064C188.228 25.928 186.26 26.36 184.052 26.36ZM184.052 20.024C184.988 20.024 185.756 19.688 186.356 19.016C186.956 18.32 187.256 17.36 187.256 16.136C187.256 14.912 186.956 13.964 186.356 13.292C185.756 12.62 184.988 12.284 184.052 12.284C183.116 12.284 182.348 12.62 181.748 13.292C181.148 13.964 180.848 14.912 180.848 16.136C180.848 17.36 181.148 18.32 181.748 19.016C182.348 19.688 183.116 20.024 184.052 20.024ZM205.786 8.432C207.226 6.776 209.35 5.948 212.158 5.948V13.148C211.51 13.052 210.91 13.004 210.358 13.004C207.574 13.004 206.182 14.42 206.182 17.252V26H198.046V6.308H205.786V8.432ZM222.168 26.36C220.488 26.36 218.832 26.18 217.2 25.82C215.568 25.46 214.248 24.992 213.24 24.416L215.472 19.052C216.384 19.604 217.464 20.036 218.712 20.348C219.96 20.66 221.172 20.816 222.348 20.816C223.284 20.816 223.932 20.744 224.292 20.6C224.676 20.432 224.868 20.192 224.868 19.88C224.868 19.568 224.628 19.352 224.148 19.232C223.692 19.112 222.936 18.992 221.88 18.872C220.272 18.68 218.904 18.44 217.776 18.152C216.648 17.84 215.652 17.252 214.788 16.388C213.948 15.524 213.528 14.288 213.528 12.68C213.528 11.408 213.912 10.268 214.68 9.26C215.448 8.252 216.588 7.448 218.1 6.848C219.636 6.248 221.472 5.948 223.608 5.948C225.096 5.948 226.548 6.092 227.964 6.38C229.404 6.644 230.628 7.04 231.636 7.568L229.404 12.932C227.676 11.972 225.78 11.492 223.716 11.492C221.94 11.492 221.052 11.804 221.052 12.428C221.052 12.74 221.292 12.968 221.772 13.112C222.252 13.232 223.008 13.352 224.04 13.472C225.648 13.664 227.004 13.916 228.108 14.228C229.236 14.54 230.22 15.128 231.06 15.992C231.924 16.856 232.356 18.092 232.356 19.7C232.356 20.924 231.972 22.04 231.204 23.048C230.436 24.056 229.284 24.86 227.748 25.46C226.212 26.06 224.352 26.36 222.168 26.36Z" fill="#30434A"/>
</svg>
