<svg width="100" height="100" viewBox="0 0 100 100" fill="none" xmlns="http://www.w3.org/2000/svg">
<path d="M86.5245 0H13.4753C6.03325 0 0 6.03296 0 13.4752V86.5243C0 93.9666 6.033 99.9995 13.4753 99.9995H49.5028L49.5642 64.2651H40.2803C39.0738 64.2651 38.0946 63.2895 38.09 62.083L38.0454 50.5644C38.0408 49.3513 39.023 48.3654 40.2361 48.3654H49.503V37.2354C49.503 24.3192 57.3915 17.2862 68.9137 17.2862H78.3686C79.5783 17.2862 80.5592 18.2669 80.5592 19.4768V29.1895C80.5592 30.3989 79.579 31.3793 78.3698 31.3801L72.5675 31.3828C66.3014 31.3828 65.088 34.3604 65.088 38.7301V48.3657H78.8569C80.1688 48.3657 81.1867 49.5112 81.0321 50.8141L79.6668 62.3328C79.5362 63.4351 78.6015 64.2656 77.4916 64.2656H65.1494L65.088 100H86.5249C93.967 100 100 93.967 100 86.525V13.4752C99.9998 6.03296 93.9668 0 86.5245 0Z" fill="#475993"/>
</svg>
