<svg width="100" height="100" viewBox="0 0 100 100" fill="none" xmlns="http://www.w3.org/2000/svg">
<path d="M100 50C100 77.61 77.61 100 50 100C22.39 100 0 77.61 0 50C0 22.39 22.39 0 50 0C77.61 0 100 22.39 100 50Z" fill="url(#paint0_linear)"/>
<path d="M66 34L26 50.292L45.264 54.736L49.708 74L66 34Z" fill="white"/>
<path d="M49.708 78C49.602 78 49.494 77.996 49.386 77.986C47.648 77.848 46.2 76.5981 45.808 74.8981L41.926 58.072L25.098 54.192C23.398 53.8 22.15 52.352 22.01 50.614C21.87 48.876 22.874 47.246 24.488 46.588L64.488 30.296C65.98 29.69 67.688 30.034 68.824 31.172C69.962 32.308 70.308 34.018 69.7 35.51L53.408 75.5101C52.794 77.0241 51.324 78 49.708 78ZM39.204 49.234L46.162 50.838C47.652 51.182 48.816 52.346 49.16 53.838L50.766 60.796L58.712 41.288L39.204 49.234Z" fill="white"/>
<defs>
<linearGradient id="paint0_linear" x1="50" y1="116.051" x2="50" y2="16.051" gradientUnits="userSpaceOnUse">
<stop stop-color="#155CDE"/>
<stop offset="0.2782" stop-color="#1F7FE5"/>
<stop offset="0.5693" stop-color="#279CEB"/>
<stop offset="0.8201" stop-color="#2CAFEF"/>
<stop offset="1" stop-color="#2EB5F0"/>
</linearGradient>
</defs>
</svg>
