<svg width="96" height="100" viewBox="0 0 96 100" fill="none" xmlns="http://www.w3.org/2000/svg">
<g clip-path="url(#clip0)">
<path d="M48 2.84656C41.7324 2.84656 22.6587 2.84656 12.1137 12.3795C5.83425 18.5733 2.875 27.523 2.875 40.4703V47.5248C2.875 60.4721 5.83425 69.4218 12.1874 75.6862C15.3509 78.5432 19.6639 80.8265 24.9364 82.4044L26.625 82.9076V95.4363C26.625 96.906 27.0549 96.906 27.1974 96.906C27.4895 96.906 27.9574 96.8143 28.8456 96.0336C29.0594 95.8243 30.6269 94.1453 38.2506 85.6894L39.0201 84.8358L40.172 84.9087C42.7251 85.0662 45.359 85.1485 48 85.1485C54.2676 85.1485 73.3412 85.1485 83.8862 75.6133C90.1634 69.4195 93.125 60.4697 93.125 47.5248V40.4703C93.125 27.523 90.1657 18.5733 83.8126 12.3089C73.3412 2.84656 54.2676 2.84656 48 2.84656Z" fill="white"/>
<path d="M70.4461 58.9388C67.8075 56.7378 66.5891 56.0724 62.9459 53.9066C61.4282 53.006 59.115 52.2277 57.9014 52.2277C57.0725 52.2277 56.0797 52.8555 55.4717 53.4575C53.9137 55.0001 53.4031 56.9307 50.6719 56.9307C48 56.9307 43.3331 54.2382 39.9844 50.758C36.4694 47.4424 33.75 42.8217 33.75 40.1763C33.75 37.4721 35.6642 36.9313 37.2222 35.3863C37.8302 34.7867 38.5 33.8038 38.5 32.9831C38.5 31.7815 37.7139 29.5264 36.8042 28.0238C34.6169 24.4143 33.9471 23.208 31.7218 20.5979C30.9689 19.7137 30.1115 19.3092 29.2138 19.3069C27.6961 19.3045 25.7035 20.05 24.3545 21.0446C22.3263 22.5425 20.2054 24.5813 19.6378 27.1209C19.5618 27.4665 19.5166 27.8146 19.5024 28.1626C19.3931 30.808 20.4429 33.4934 21.5758 35.7673C24.2429 41.1263 27.7721 46.3137 31.6125 50.9461C32.8404 52.4276 34.1775 53.8055 35.5621 55.1365C36.9064 56.505 38.2981 57.8289 39.7944 59.047C44.4731 62.8493 49.7124 66.3436 55.125 68.9844C57.4002 70.0943 60.0792 71.1148 62.725 71.0396C63.1026 71.0278 63.4802 70.9855 63.8579 70.9032C66.4229 70.3435 68.482 68.2413 69.9949 66.2331C70.9995 64.8975 71.7524 62.9269 71.75 61.422C71.7476 60.5331 71.3391 59.6842 70.4461 58.9388Z" fill="#7E57C2"/>
<path d="M71.75 47.5247C70.439 47.5247 69.375 46.4713 69.375 45.1733V42.8218C69.375 31.1537 59.7848 21.6584 48 21.6584C46.689 21.6584 45.625 20.6049 45.625 19.3069C45.625 18.0089 46.689 16.9554 48 16.9554C62.4044 16.9554 74.125 28.56 74.125 42.8218V45.1733C74.125 46.4713 73.061 47.5247 71.75 47.5247Z" fill="#7E57C2"/>
<path d="M57.1628 42.8218C56.1083 42.8218 55.144 42.1211 54.8661 41.0629C54.2154 38.5915 52.2679 36.6609 49.7813 36.026C48.5106 35.6992 47.7483 34.4176 48.076 33.1595C48.4038 31.9039 49.6958 31.149 50.9711 31.4712C55.1226 32.5364 58.3764 35.7556 59.4618 39.8754C59.7919 41.1334 59.0319 42.415 57.7636 42.7442C57.5618 42.7959 57.3599 42.8218 57.1628 42.8218Z" fill="#7E57C2"/>
<path d="M64.625 45.1733C63.314 45.1733 62.25 44.1198 62.25 42.8218C62.25 35.3253 56.3267 29.1409 48.7647 28.7458C47.4537 28.6776 46.4491 27.5701 46.518 26.2744C46.5869 24.9764 47.7245 23.9794 49.0141 24.0499C59.1007 24.5766 67 32.8233 67 42.8218C67 44.1198 65.936 45.1733 64.625 45.1733Z" fill="#7E57C2"/>
<path d="M48 0.494995C37.3125 0.494995 20.659 1.46851 10.513 10.644C3.3405 17.7149 0.499997 27.6335 0.499997 40.4702C0.499997 41.5331 0.495247 42.7183 0.504747 43.9975C0.495247 45.2743 0.499997 46.4595 0.499997 47.5223C0.499997 60.3591 3.3405 70.2777 10.513 77.3486C14.3747 80.8405 19.1912 83.1379 24.25 84.6523V95.4362C24.25 99.1892 26.7414 99.2574 27.1974 99.2574H27.2188C28.392 99.2527 29.4061 98.6836 30.4226 97.79C30.805 97.4538 35.2201 92.5815 40.0224 87.253C42.8819 87.4341 45.5989 87.4999 47.9976 87.4999C58.6851 87.4999 75.3363 86.5241 85.4846 77.3486C92.6548 70.28 95.4976 60.3591 95.4976 47.5223C95.4976 46.4595 95.5024 45.2743 95.4929 43.9951C95.5024 42.7159 95.4976 41.5331 95.4976 40.4679C95.4976 27.6311 92.6571 17.7126 85.4846 10.6417C75.3386 1.46851 58.6875 0.494995 48 0.494995ZM88.375 46.704V47.5223C88.375 59.0587 85.8931 66.9197 80.5708 72.2412C71.351 80.4455 53.7879 80.4455 47.9976 80.4455C46.2354 80.4455 43.3759 80.4431 40.001 80.2103C39.0629 81.2544 29 92.3981 29 92.3981V78.6113C24.003 77.4238 19.0654 75.4768 15.4292 72.2435C10.1069 66.9197 7.625 59.0587 7.625 47.5223V46.704C7.625 45.8787 7.62262 44.9874 7.62975 43.9457C7.62262 43.0051 7.62262 42.1163 7.625 41.2886V40.4702C7.625 28.9339 10.1069 21.0728 15.4292 15.7514C27.5 8 42.2121 7.5471 48 7.5471C53.7879 7.5471 71 7.5471 80.5684 15.7514C85.8931 21.0728 88.3726 28.9339 88.3726 40.4702V41.2886C88.3726 42.1139 88.375 43.0051 88.3679 44.0468C88.375 44.9898 88.375 45.8787 88.375 46.704Z" fill="#7E57C2"/>
</g>
<defs>
<clipPath id="clip0">
<rect width="96" height="100" fill="white"/>
</clipPath>
</defs>
</svg>
