<svg width="100" height="100" viewBox="0 0 100 100" fill="none" xmlns="http://www.w3.org/2000/svg">
<circle cx="50" cy="50" r="50" fill="#4A76A8"/>
<path fill-rule="evenodd" clip-rule="evenodd" d="M74.0029 56.8862C73.4482 56.3611 72.8936 55.8359 72.3474 55.3024C70.4936 53.4937 70.3755 52.4451 71.8686 50.3623C72.7343 49.1483 73.6355 47.9597 74.5368 46.771C75.3273 45.7285 76.1178 44.6859 76.8845 43.626C76.9386 43.5511 76.9928 43.4762 77.0469 43.4013C78.5253 41.3572 80.0102 39.304 80.7878 36.8564C81.2999 35.2415 80.8464 34.5292 79.1909 34.2461C78.9042 34.1965 78.6103 34.1938 78.3208 34.1938L68.4982 34.1821C67.2882 34.164 66.621 34.6915 66.1918 35.7636C65.6147 37.2134 65.0205 38.6606 64.3317 40.0591C62.7709 43.2302 61.028 46.294 58.5818 48.8899C58.5472 48.9265 58.5123 48.9638 58.4771 49.0014C57.9649 49.5493 57.3896 50.1646 56.5459 49.8862C55.4206 49.4759 55.087 47.6185 55.1059 46.9919L55.0969 35.6563C54.8787 34.0369 54.5181 33.3156 52.9104 33L42.71 33.0018C41.3476 33.0018 40.6659 33.5284 39.9383 34.3795C39.519 34.8718 39.3928 35.191 40.2548 35.3542C41.9472 35.6752 42.902 36.7716 43.1545 38.4694C43.5602 41.1825 43.5323 43.9055 43.2979 46.6294C43.2293 47.4247 43.0932 48.2181 42.7776 48.9602C42.2844 50.1278 41.4873 50.365 40.4414 49.6472C39.4938 48.9972 38.8284 48.0793 38.1765 47.1587C35.7303 43.7017 33.7782 39.9743 32.1859 36.0566C31.7251 34.925 30.9317 34.2389 29.7325 34.2199C26.7859 34.1731 23.8393 34.1658 20.8926 34.2226C19.1191 34.256 18.5907 35.1162 19.3129 36.7238C22.5219 43.8622 26.0934 50.8014 30.7567 57.1238C33.1515 60.367 35.8998 63.2316 39.4505 65.2612C43.4755 67.5622 47.8061 68.2547 52.3703 68.041C54.5063 67.9409 55.1483 67.3846 55.2466 65.2558C55.3151 63.7996 55.4792 62.3498 56.1978 61.0415C56.9029 59.7557 57.9723 59.5104 59.2031 60.3111C59.8198 60.7105 60.3373 61.2182 60.8287 61.7574C61.2268 62.1921 61.62 62.6316 62.0132 63.0711C62.8082 63.9597 63.6034 64.8485 64.439 65.6985C66.0033 67.2926 67.8589 68.2331 70.1906 68.0401L79.2189 68.0419C80.6724 67.9454 81.4279 66.1647 80.5912 64.5408C80.0051 63.402 79.2351 62.3894 78.4182 61.4102C77.0647 59.7853 75.5338 58.3358 74.0029 56.8862Z" fill="white"/>
</svg>
