<svg width="100" height="100" viewBox="0 0 100 100" fill="none" xmlns="http://www.w3.org/2000/svg">
<g clip-path="url(#clip0)">
<path d="M49.9732 0.0254147C22.3752 0.0312706 0.00740487 22.4087 0.0132608 50.0066C0.0152128 59.5628 2.75754 68.9181 7.91464 76.9633L0.140139 97.1348C-0.273874 98.2076 0.260185 99.4129 1.33299 99.8269C1.57288 99.9194 1.82762 99.9669 2.08469 99.9665C2.32322 99.9677 2.56 99.9269 2.78428 99.8456L23.6054 92.4126C47.0313 107.003 77.8494 99.8394 92.4392 76.4132C107.029 52.987 99.8661 22.1692 76.4399 7.57934C68.4989 2.63344 59.3288 0.0162404 49.9732 0.0254147Z" fill="#4CAF50"/>
<path d="M73.7966 58.5375C73.7966 58.5375 68.6955 56.0389 65.5015 54.3733C61.887 52.5119 57.6395 55.9974 55.6407 57.9796C52.5299 56.7846 49.6886 54.981 47.2831 52.6743C44.9761 50.2693 43.1725 47.428 41.9779 44.3168C43.9601 42.3139 47.4372 38.0705 45.5842 34.456C43.9392 31.2579 41.42 26.1609 41.42 26.1568C41.0665 25.4553 40.3484 25.0124 39.5627 25.0116H35.3986C29.3342 26.059 24.9249 31.3504 24.9881 37.5042C24.9881 44.0419 32.8126 56.6013 38.0888 61.8814C43.365 67.1615 55.9241 74.982 62.466 74.982C68.6197 75.0453 73.9111 70.6358 74.9586 64.5716V60.4074C74.9592 59.6134 74.5086 58.8882 73.7966 58.5375Z" fill="#FAFAFA"/>
</g>
<defs>
<clipPath id="clip0">
<rect width="100" height="100" fill="white"/>
</clipPath>
</defs>
</svg>
